<svg xmlns="http://www.w3.org/2000/svg" width="55" height="51" fill="none"><path stroke="#6ED35E" stroke-linecap="square" stroke-width="3" d="M2 2c2.594.667 8.892 2.6 13.338 5 5.558 3 10.374 4.5 13.709 5 3.334.5 9.633-.5 14.82-3 5.187-2.5 9.263-3 9.633-3"/><path stroke="#25C5FF" stroke-linecap="square" stroke-width="3" d="M5.705 12c2.388.658 8.188 2.568 12.283 4.938 5.117 2.963 9.553 4.445 12.623 4.939 3.071.493 8.871-.494 13.648-2.963 4.776-2.47 8.53-2.963 8.87-2.963"/><path stroke="#258BFF" stroke-linecap="square" stroke-width="3" d="M9.41 21c2.202.658 7.549 2.568 11.323 4.938 4.718 2.963 8.807 4.445 11.638 4.939 2.83.493 8.177-.494 12.58-2.963 4.404-2.47 7.864-2.963 8.178-2.963"/><path stroke="#4BC544" stroke-linecap="square" stroke-width="3" d="M12.374 29c2.053.658 7.037 2.568 10.555 4.938 4.399 2.963 8.21 4.445 10.849 4.938 2.639.494 7.623-.493 11.728-2.962 4.105-2.47 7.33-2.963 7.623-2.963"/><path stroke="#2E9C27" stroke-linecap="square" stroke-width="3" d="M18.302 39c1.754.658 6.014 2.568 9.02 4.938 3.759 2.963 7.016 4.445 9.27 4.938 2.256.494 6.515-.493 10.023-2.962 3.508-2.47 6.264-2.963 6.514-2.963"/></svg>